<svg width="20" height="23" viewBox="0 0 20 23" fill="none" xmlns="http://www.w3.org/2000/svg">
<path d="M19.0113 16.592C18.3499 18.4053 17.2619 19.8133 15.7473 20.816C14.2326 21.8187 12.4833 22.32 10.4993 22.32C8.49392 22.32 6.75525 21.8827 5.28325 21.008C3.83258 20.112 2.70192 18.8533 1.89125 17.232C1.10192 15.6107 0.70725 13.68 0.70725 11.44C0.70725 9.2 1.10192 7.26933 1.89125 5.648C2.70192 4.02667 3.83258 2.77867 5.28325 1.904C6.75525 1.008 8.47258 0.559999 10.4353 0.559999C12.4833 0.559999 14.1899 0.986666 15.5553 1.84C16.9419 2.672 17.9659 3.888 18.6273 5.488L16.0993 6.672C15.6299 5.456 14.9473 4.53867 14.0513 3.92C13.1766 3.28 12.0353 2.96 10.6273 2.96C9.19792 2.96 7.93925 3.30133 6.85125 3.984C5.76325 4.64533 4.90992 5.60533 4.29125 6.864C3.69392 8.12267 3.39525 9.648 3.39525 11.44C3.39525 14.0853 4.02458 16.1653 5.28325 17.68C6.56325 19.1733 8.30192 19.92 10.4993 19.92C11.9073 19.92 13.1339 19.568 14.1793 18.864C15.2246 18.1387 15.9819 17.0613 16.4513 15.632L19.0113 16.592Z" fill="white"/>
</svg>
